<svg width="56" height="56" viewBox="0 0 56 56" fill="none" xmlns="http://www.w3.org/2000/svg">
<path d="M45.1348 7.09712C40.558 2.52044 34.473 0 28.0003 0C21.5276 0 15.4425 2.52044 10.8657 7.09712C6.28899 11.6739 3.76855 17.759 3.76855 24.2317C3.76855 30.7044 6.28899 36.7895 10.8657 41.3664L23.7401 54.2404C24.8745 55.375 26.3875 56 28.0004 56C29.6131 56 31.1261 55.375 32.2606 54.2405L45.1348 41.3664C49.7115 36.7895 52.232 30.7044 52.232 24.2317C52.232 17.759 49.7115 11.6738 45.1348 7.09712ZM28 17.4005C31.7667 17.4008 34.8312 20.4655 34.8314 24.2321C34.8314 27.9988 31.767 31.0632 28.0006 31.0632C24.2338 31.0629 21.1692 27.9985 21.169 24.232C21.1692 20.465 24.2336 17.4005 28 17.4005Z" fill="#8CCCE0"/>
<path d="M45.1336 7.09713C40.5568 2.52044 34.4717 0 27.999 0V17.4005C31.7656 17.4009 34.8299 20.4655 34.8301 24.2321C34.8301 27.9988 31.7658 31.0632 27.9994 31.0632H27.999V56H27.9991C29.6119 56 31.1249 55.375 32.2594 54.2405L45.1336 41.3664C49.7103 36.7895 52.2307 30.7044 52.2307 24.2317C52.2307 17.759 49.7103 11.6738 45.1336 7.09713Z" fill="#0C8AD6"/>
<rect x="10" y="6" width="36" height="36" rx="18" fill="white"/>
<path d="M17.8645 19.26L17.2225 19.056L18.5785 16.8H19.3765L17.8645 19.26ZM17.1865 21V18.984H17.8825V21H17.1865ZM17.2045 19.26L15.6925 16.8H16.4905L17.8465 19.056L17.2045 19.26ZM21.7878 21.072C21.3718 21.072 21.0038 20.98 20.6838 20.796C20.3638 20.612 20.1118 20.356 19.9278 20.028C19.7478 19.7 19.6578 19.324 19.6578 18.9C19.6578 18.476 19.7478 18.102 19.9278 17.778C20.1118 17.45 20.3618 17.194 20.6778 17.01C20.9938 16.822 21.3578 16.728 21.7698 16.728C22.1858 16.728 22.5518 16.822 22.8678 17.01C23.1878 17.194 23.4358 17.45 23.6118 17.778C23.7918 18.102 23.8818 18.476 23.8818 18.9C23.8818 19.324 23.7918 19.7 23.6118 20.028C23.4358 20.356 23.1898 20.612 22.8738 20.796C22.5618 20.98 22.1998 21.072 21.7878 21.072ZM21.7878 20.436C22.0598 20.436 22.2998 20.37 22.5078 20.238C22.7158 20.106 22.8778 19.926 22.9938 19.698C23.1138 19.466 23.1738 19.2 23.1738 18.9C23.1738 18.604 23.1138 18.34 22.9938 18.108C22.8738 17.876 22.7078 17.696 22.4958 17.568C22.2878 17.436 22.0458 17.37 21.7698 17.37C21.4978 17.37 21.2558 17.436 21.0438 17.568C20.8358 17.696 20.6698 17.876 20.5458 18.108C20.4258 18.336 20.3658 18.6 20.3658 18.9C20.3658 19.2 20.4258 19.466 20.5458 19.698C20.6698 19.926 20.8378 20.106 21.0498 20.238C21.2658 20.37 21.5118 20.436 21.7878 20.436ZM26.223 21.084C25.891 21.084 25.599 21.018 25.347 20.886C25.099 20.75 24.905 20.56 24.765 20.316C24.629 20.072 24.561 19.788 24.561 19.464V16.8H25.257V19.464C25.257 19.66 25.297 19.832 25.377 19.98C25.461 20.124 25.577 20.238 25.725 20.322C25.873 20.402 26.043 20.442 26.235 20.442C26.431 20.442 26.603 20.402 26.751 20.322C26.903 20.238 27.019 20.124 27.099 19.98C27.179 19.832 27.219 19.66 27.219 19.464V16.8H27.915V19.464C27.915 19.788 27.845 20.072 27.705 20.316C27.569 20.56 27.373 20.75 27.117 20.886C26.865 21.018 26.567 21.084 26.223 21.084ZM33.2088 21L31.5708 16.8H32.2668L33.9468 21H33.2088ZM29.8548 21L31.5288 16.8H32.2308L30.5928 21H29.8548ZM30.6408 19.968V19.35H33.1548V19.968H30.6408ZM34.4941 21V16.8H35.9761C36.2641 16.8 36.5181 16.856 36.7381 16.968C36.9581 17.08 37.1301 17.236 37.2541 17.436C37.3781 17.632 37.4401 17.86 37.4401 18.12C37.4401 18.38 37.3741 18.61 37.2421 18.81C37.1141 19.01 36.9361 19.168 36.7081 19.284C36.4801 19.396 36.2221 19.452 35.9341 19.452H35.1901V21H34.4941ZM36.8221 21L35.8381 19.296L36.3781 18.924L37.6081 21H36.8221ZM35.1901 18.81H36.0061C36.1421 18.81 36.2621 18.78 36.3661 18.72C36.4741 18.66 36.5601 18.578 36.6241 18.474C36.6921 18.37 36.7261 18.252 36.7261 18.12C36.7261 17.92 36.6541 17.756 36.5101 17.628C36.3661 17.5 36.1801 17.436 35.9521 17.436H35.1901V18.81ZM38.3144 21V16.8H40.9004V17.436H39.0104V18.552H40.6784V19.176H39.0104V20.364H40.9184V21H38.3144ZM19.5104 31V22.6H21.1544V31H19.5104ZM13.9784 31V22.588H15.6224V31H13.9784ZM15.2024 27.46V25.948H20.2904V27.46H15.2024ZM22.9784 31V22.6H28.2944V24.1H24.6224V26.008H27.7904V27.472H24.6224V29.5H28.3424V31H22.9784ZM30.0448 31V22.6H33.1648C33.7568 22.6 34.2808 22.716 34.7368 22.948C35.1928 23.18 35.5488 23.5 35.8048 23.908C36.0608 24.308 36.1888 24.776 36.1888 25.312C36.1888 25.84 36.0528 26.312 35.7808 26.728C35.5168 27.136 35.1528 27.456 34.6888 27.688C34.2248 27.912 33.6968 28.024 33.1048 28.024H31.6888V31H30.0448ZM34.6648 31L32.7208 27.628L33.9808 26.728L36.5248 31H34.6648ZM31.6888 26.524H33.1768C33.4248 26.524 33.6448 26.472 33.8368 26.368C34.0368 26.264 34.1928 26.12 34.3048 25.936C34.4248 25.752 34.4848 25.544 34.4848 25.312C34.4848 24.952 34.3528 24.66 34.0888 24.436C33.8328 24.212 33.5008 24.1 33.0928 24.1H31.6888V26.524ZM37.7792 31V22.6H43.0952V24.1H39.4232V26.008H42.5912V27.472H39.4232V29.5H43.1432V31H37.7792Z" fill="#0C8AD6"/>
</svg>
