<svg width="164" height="164" viewBox="0 0 164 164" fill="none" xmlns="http://www.w3.org/2000/svg">
<path d="M30.75 2.5625C32.1092 2.5625 33.4128 3.10245 34.3739 4.06358C35.335 5.0247 35.875 6.32827 35.875 7.6875V153.75H25.625V7.6875C25.625 6.32827 26.165 5.0247 27.1261 4.06358C28.0872 3.10245 29.3908 2.5625 30.75 2.5625Z" fill="#F9F9F9"/>
<path d="M30.75 12.8125V153.75H35.875V7.6875C34.5158 7.6875 33.2122 8.22745 32.2511 9.18858C31.29 10.1497 30.75 11.4533 30.75 12.8125Z" fill="#F0F0F0"/>
<path d="M133.25 2.5625C134.609 2.5625 135.913 3.10245 136.874 4.06358C137.835 5.0247 138.375 6.32827 138.375 7.6875V153.75H128.125V7.6875C128.125 6.32827 128.665 5.0247 129.626 4.06358C130.587 3.10245 131.891 2.5625 133.25 2.5625Z" fill="#F9F9F9"/>
<path d="M133.25 12.8125V153.75H138.375V7.6875C137.016 7.6875 135.712 8.22745 134.751 9.18858C133.79 10.1497 133.25 11.4533 133.25 12.8125Z" fill="#F0F0F0"/>
<path d="M23.0625 153.75H38.4375C39.7967 153.75 41.1003 154.29 42.0614 155.251C43.0225 156.212 43.5625 157.516 43.5625 158.875V161.438H17.9375V158.875C17.9375 157.516 18.4775 156.212 19.4386 155.251C20.3997 154.29 21.7033 153.75 23.0625 153.75Z" fill="#505069"/>
<path d="M125.562 153.75H140.938C142.297 153.75 143.6 154.29 144.561 155.251C145.523 156.212 146.062 157.516 146.062 158.875V161.438H120.438V158.875C120.438 157.516 120.977 156.212 121.939 155.251C122.9 154.29 124.203 153.75 125.562 153.75Z" fill="#505069"/>
<path d="M153.75 17.9375H10.25C6.00431 17.9375 2.5625 21.3793 2.5625 25.625V51.25C2.5625 55.4957 6.00431 58.9375 10.25 58.9375H153.75C157.996 58.9375 161.438 55.4957 161.438 51.25V25.625C161.438 21.3793 157.996 17.9375 153.75 17.9375Z" fill="#FFF0A0"/>
<path d="M161.438 25.625C161.429 24.75 161.27 23.8831 160.966 23.0625H17.9375C15.8986 23.0625 13.9433 23.8724 12.5016 25.3141C11.0599 26.7558 10.25 28.7111 10.25 30.75V56.375C10.2583 57.25 10.4178 58.1169 10.7215 58.9375H153.75C155.789 58.9375 157.744 58.1276 159.186 56.6859C160.628 55.2442 161.438 53.2889 161.438 51.25V25.625Z" fill="#FAE16E"/>
<path d="M153.75 69.1875H10.25C6.00431 69.1875 2.5625 72.6293 2.5625 76.875V97.375C2.5625 101.621 6.00431 105.062 10.25 105.062H153.75C157.996 105.062 161.438 101.621 161.438 97.375V76.875C161.438 72.6293 157.996 69.1875 153.75 69.1875Z" fill="#F38296"/>
<path d="M161.438 76.875C161.429 76 161.27 75.1331 160.966 74.3125H17.9375C15.8986 74.3125 13.9433 75.1224 12.5016 76.5641C11.0599 78.0058 10.25 79.9611 10.25 82V102.5C10.2583 103.375 10.4178 104.242 10.7215 105.062H153.75C155.789 105.062 157.744 104.253 159.186 102.811C160.628 101.369 161.438 99.4139 161.438 97.375V76.875Z" fill="#F06478"/>
<path d="M83.6016 49.3282C83.0918 49.3282 82.603 49.1257 82.2426 48.7653C81.8822 48.4048 81.6797 47.916 81.6797 47.4063V35.565L77.3234 41.7816C77.1459 42.0343 76.9101 42.2406 76.636 42.383C76.362 42.5254 76.0576 42.5997 75.7488 42.5997C75.4399 42.5997 75.1356 42.5254 74.8615 42.383C74.5874 42.2406 74.3517 42.0343 74.1741 41.7816L69.8179 35.565V47.4063C69.8179 47.916 69.6154 48.4048 69.255 48.7653C68.8945 49.1257 68.4057 49.3282 67.896 49.3282C67.3863 49.3282 66.8974 49.1257 66.537 48.7653C66.1766 48.4048 65.9741 47.916 65.9741 47.4063V29.4688C65.9745 29.0604 66.105 28.6627 66.3467 28.3334C66.5883 28.0041 66.9286 27.7604 67.3182 27.6376C67.7077 27.5148 68.1262 27.5193 68.513 27.6505C68.8998 27.7816 69.2348 28.0325 69.4694 28.3669L75.7424 37.3357L82.0179 28.3669C82.2525 28.0325 82.5875 27.7816 82.9743 27.6505C83.3611 27.5193 83.7796 27.5148 84.1691 27.6376C84.5587 27.7604 84.899 28.0041 85.1406 28.3334C85.3823 28.6627 85.5128 29.0604 85.5132 29.4688V47.4063C85.5132 47.9142 85.3121 48.4015 84.9539 48.7616C84.5957 49.1218 84.1095 49.3255 83.6016 49.3282Z" fill="#505069"/>
<path d="M110.572 48.5594L100.578 35.2344V47.4062C100.578 47.916 100.376 48.4048 100.015 48.7652C99.6548 49.1256 99.166 49.3281 98.6562 49.3281C98.1465 49.3281 97.6577 49.1256 97.2973 48.7652C96.9369 48.4048 96.7344 47.916 96.7344 47.4062V29.4688C96.7344 29.0654 96.8613 28.6722 97.0971 28.345C97.333 28.0178 97.6658 27.7731 98.0485 27.6455C98.4312 27.5179 98.8443 27.514 99.2293 27.6343C99.6143 27.7546 99.9517 27.9929 100.194 28.3156L110.188 41.6406V29.4688C110.188 28.959 110.39 28.4702 110.75 28.1098C111.111 27.7494 111.6 27.5469 112.109 27.5469C112.619 27.5469 113.108 27.7494 113.468 28.1098C113.829 28.4702 114.031 28.959 114.031 29.4688V47.4062C114.031 47.8096 113.904 48.2028 113.668 48.53C113.433 48.8572 113.1 49.1019 112.717 49.2295C112.334 49.3571 111.921 49.361 111.536 49.2407C111.151 49.1204 110.814 48.8821 110.572 48.5594Z" fill="#505069"/>
<path d="M90.9688 49.3281C90.459 49.3281 89.9702 49.1256 89.6098 48.7652C89.2494 48.4048 89.0469 47.916 89.0469 47.4062V29.4688C89.0469 28.959 89.2494 28.4702 89.6098 28.1098C89.9702 27.7494 90.459 27.5469 90.9688 27.5469C91.4785 27.5469 91.9673 27.7494 92.3277 28.1098C92.6881 28.4702 92.8906 28.959 92.8906 29.4688V47.4062C92.8906 47.916 92.6881 48.4048 92.3277 48.7652C91.9673 49.1256 91.4785 49.3281 90.9688 49.3281Z" fill="#505069"/>
<path d="M36.1953 49.3281C33.9025 49.3254 31.7043 48.4134 30.083 46.7921C28.4617 45.1707 27.5496 42.9726 27.5469 40.6797V36.1953C27.5426 34.5234 28.0244 32.8862 28.9338 31.4832C29.8431 30.0801 31.1407 28.9717 32.6687 28.2929C34.1966 27.6141 35.8889 27.3941 37.5397 27.6597C39.1904 27.9253 40.7283 28.6651 41.9661 29.7891C42.1699 29.9526 42.3382 30.1559 42.4607 30.3866C42.5833 30.6174 42.6575 30.8707 42.6788 31.1311C42.7001 31.3915 42.6682 31.6535 42.5848 31.9011C42.5015 32.1487 42.3685 32.3767 42.1941 32.5712C42.0197 32.7657 41.8074 32.9226 41.5703 33.0323C41.3332 33.142 41.0762 33.2022 40.815 33.2092C40.5538 33.2163 40.294 33.17 40.0513 33.0732C39.8086 32.9764 39.5882 32.8311 39.4036 32.6462C38.7183 32.0185 37.8647 31.6043 36.9474 31.4545C36.0302 31.3046 35.0892 31.4256 34.2397 31.8026C33.3902 32.1796 32.6692 32.7963 32.165 33.577C31.6607 34.3577 31.3952 35.2685 31.4009 36.1979V40.6822C31.3952 41.6116 31.6607 42.5225 32.165 43.3032C32.6692 44.0839 33.3902 44.7005 34.2397 45.0775C35.0892 45.4545 36.0302 45.5755 36.9474 45.4256C37.8647 45.2758 38.7183 44.8616 39.4036 44.2339C39.5882 44.049 39.8086 43.9038 40.0513 43.807C40.294 43.7102 40.5538 43.6638 40.815 43.6709C41.0762 43.6779 41.3332 43.7381 41.5703 43.8478C41.8074 43.9575 42.0197 44.1144 42.1941 44.3089C42.3685 44.5034 42.5015 44.7314 42.5848 44.979C42.6682 45.2266 42.7001 45.4886 42.6788 45.749C42.6575 46.0094 42.5833 46.2627 42.4607 46.4935C42.3382 46.7242 42.1699 46.9276 41.9661 47.0911C40.3851 48.5243 38.3293 49.3213 36.1953 49.3281Z" fill="#505069"/>
<path d="M126.682 49.3282C124.092 49.3255 121.609 48.2954 119.778 46.4641C117.947 44.6328 116.917 42.1498 116.914 39.5599V37.3177C116.912 35.376 117.489 33.4779 118.572 31.866C119.655 30.2542 121.194 29.0018 122.992 28.2692C124.79 27.5366 126.766 27.3569 128.667 27.7532C130.567 28.1494 132.307 29.1037 133.663 30.4938C133.843 30.6733 133.986 30.8869 134.083 31.1222C134.181 31.3575 134.23 31.6097 134.229 31.8643C134.228 32.1189 134.177 32.3707 134.077 32.6052C133.978 32.8396 133.833 33.0521 133.651 33.2301C133.47 33.4082 133.254 33.5483 133.017 33.6424C132.781 33.7364 132.528 33.7826 132.273 33.7781C132.019 33.7736 131.768 33.7186 131.535 33.6162C131.302 33.5139 131.091 33.3662 130.916 33.1819C130.093 32.3386 129.039 31.7598 127.886 31.5194C126.733 31.2789 125.534 31.3879 124.444 31.8322C123.353 32.2765 122.42 33.0361 121.763 34.0137C121.107 34.9914 120.757 36.1426 120.758 37.3203V39.5625C120.76 40.9642 121.258 42.3199 122.165 43.3889C123.072 44.4578 124.328 45.1708 125.71 45.4013C127.093 45.6317 128.513 45.3647 129.717 44.6476C130.921 43.9305 131.833 42.8097 132.289 41.4844H127.805C127.295 41.4844 126.806 41.2819 126.446 40.9215C126.085 40.561 125.883 40.0722 125.883 39.5625C125.883 39.0528 126.085 38.5639 126.446 38.2035C126.806 37.8431 127.295 37.6406 127.805 37.6406H134.531C135.041 37.6406 135.53 37.8431 135.89 38.2035C136.251 38.5639 136.453 39.0528 136.453 39.5625C136.45 42.1524 135.419 44.6351 133.587 46.4659C131.755 48.2968 129.272 49.3261 126.682 49.3282Z" fill="#505069"/>
<path d="M53.4922 49.3281C51.1993 49.3254 49.0011 48.4134 47.3798 46.7921C45.7585 45.1708 44.8465 42.9726 44.8438 40.6797V36.1953C44.8438 33.9016 45.7549 31.7018 47.3768 30.0799C48.9987 28.458 51.1985 27.5469 53.4922 27.5469C55.7859 27.5469 57.9857 28.458 59.6076 30.0799C61.2295 31.7018 62.1406 33.9016 62.1406 36.1953V40.6797C62.1379 42.9726 61.2259 45.1708 59.6046 46.7921C57.9833 48.4134 55.7851 49.3254 53.4922 49.3281ZM53.4922 31.3906C52.2183 31.392 50.997 31.8986 50.0963 32.7994C49.1955 33.7001 48.6889 34.9214 48.6875 36.1953V40.6797C48.6875 41.954 49.1937 43.1761 50.0948 44.0771C50.9958 44.9782 52.2179 45.4844 53.4922 45.4844C54.7665 45.4844 55.9886 44.9782 56.8896 44.0771C57.7907 43.1761 58.2969 41.954 58.2969 40.6797V36.1953C58.2955 34.9214 57.7889 33.7001 56.8881 32.7994C55.9874 31.8986 54.7661 31.392 53.4922 31.3906Z" fill="#505069"/>
<path d="M115.056 97.2469L105.062 83.9219V96.0938C105.062 96.6035 104.86 97.0923 104.5 97.4527C104.139 97.8131 103.65 98.0156 103.141 98.0156C102.631 98.0156 102.142 97.8131 101.782 97.4527C101.421 97.0923 101.219 96.6035 101.219 96.0938V78.1562C101.219 77.7529 101.346 77.3597 101.582 77.0325C101.817 76.7053 102.15 76.4606 102.533 76.333C102.916 76.2054 103.329 76.2015 103.714 76.3218C104.099 76.4421 104.436 76.6804 104.678 77.0031L114.672 90.3281V78.1562C114.672 77.6465 114.874 77.1577 115.235 76.7973C115.595 76.4369 116.084 76.2344 116.594 76.2344C117.103 76.2344 117.592 76.4369 117.953 76.7973C118.313 77.1577 118.516 77.6465 118.516 78.1562V96.0938C118.516 96.4971 118.389 96.8903 118.153 97.2175C117.917 97.5447 117.584 97.7894 117.202 97.917C116.819 98.0446 116.406 98.0485 116.021 97.9282C115.636 97.8079 115.298 97.5696 115.056 97.2469Z" fill="white"/>
<path d="M69.5078 98.0156C67.2149 98.0129 65.0167 97.1009 63.3954 95.4796C61.7741 93.8582 60.8621 91.6601 60.8594 89.3672V84.8828C60.8594 82.5891 61.7705 80.3893 63.3924 78.7674C65.0143 77.1455 67.2141 76.2344 69.5078 76.2344C71.8015 76.2344 74.0013 77.1455 75.6232 78.7674C77.2451 80.3893 78.1562 82.5891 78.1562 84.8828V89.3672C78.1535 91.6601 77.2415 93.8582 75.6202 95.4796C73.9989 97.1009 71.8007 98.0129 69.5078 98.0156ZM69.5078 80.0781C68.2339 80.0795 67.0126 80.5861 66.1119 81.4869C65.2111 82.3876 64.7045 83.6089 64.7031 84.8828V89.3672C64.7031 90.6415 65.2093 91.8636 66.1104 92.7646C67.0114 93.6657 68.2335 94.1719 69.5078 94.1719C70.7821 94.1719 72.0042 93.6657 72.9052 92.7646C73.8063 91.8636 74.3125 90.6415 74.3125 89.3672V84.8828C74.3111 83.6089 73.8045 82.3876 72.9037 81.4869C72.003 80.5861 70.7817 80.0795 69.5078 80.0781Z" fill="white"/>
<path d="M90.0078 98.0156C87.7149 98.0129 85.5168 97.1009 83.8954 95.4796C82.2741 93.8582 81.3621 91.6601 81.3594 89.3672V84.8828C81.3594 82.5891 82.2705 80.3893 83.8924 78.7674C85.5143 77.1455 87.7141 76.2344 90.0078 76.2344C92.3015 76.2344 94.5013 77.1455 96.1232 78.7674C97.7451 80.3893 98.6562 82.5891 98.6562 84.8828V89.3672C98.6535 91.6601 97.7415 93.8582 96.1202 95.4796C94.4989 97.1009 92.3007 98.0129 90.0078 98.0156ZM90.0078 80.0781C88.7339 80.0795 87.5126 80.5861 86.6119 81.4869C85.7111 82.3876 85.2045 83.6089 85.2031 84.8828V89.3672C85.2031 90.6415 85.7093 91.8636 86.6104 92.7646C87.5114 93.6657 88.7335 94.1719 90.0078 94.1719C91.2821 94.1719 92.5042 93.6657 93.4052 92.7646C94.3063 91.8636 94.8125 90.6415 94.8125 89.3672V84.8828C94.8111 83.6089 94.3045 82.3876 93.4037 81.4869C92.503 80.5861 91.2817 80.0795 90.0078 80.0781Z" fill="white"/>
<path d="M51.8906 98.0156H47.4062C46.8965 98.0156 46.4077 97.8131 46.0473 97.4527C45.6869 97.0923 45.4844 96.6035 45.4844 96.0938C45.4844 95.584 45.6869 95.0952 46.0473 94.7348C46.4077 94.3744 46.8965 94.1719 47.4062 94.1719H51.8906C52.5702 94.1719 53.222 93.9019 53.7026 93.4213C54.1832 92.9408 54.4531 92.289 54.4531 91.6094C54.4531 90.9298 54.1832 90.278 53.7026 89.7974C53.222 89.3168 52.5702 89.0469 51.8906 89.0469C50.1916 89.0469 48.5621 88.3719 47.3607 87.1705C46.1593 85.9691 45.4844 84.3397 45.4844 82.6406C45.4844 80.9416 46.1593 79.3121 47.3607 78.1107C48.5621 76.9093 50.1916 76.2344 51.8906 76.2344H56.375C56.8847 76.2344 57.3736 76.4369 57.734 76.7973C58.0944 77.1577 58.2969 77.6465 58.2969 78.1562C58.2969 78.666 58.0944 79.1548 57.734 79.5152C57.3736 79.8756 56.8847 80.0781 56.375 80.0781H51.8906C51.211 80.0781 50.5592 80.3481 50.0787 80.8287C49.5981 81.3092 49.3281 81.961 49.3281 82.6406C49.3281 83.3202 49.5981 83.972 50.0787 84.4526C50.5592 84.9332 51.211 85.2031 51.8906 85.2031C53.5897 85.2031 55.2191 85.8781 56.4205 87.0795C57.6219 88.2809 58.2969 89.9103 58.2969 91.6094C58.2969 93.3084 57.6219 94.9379 56.4205 96.1393C55.2191 97.3407 53.5897 98.0156 51.8906 98.0156Z" fill="white"/>
</svg>
